<?xml version="1.0" encoding="utf-8"?>
<!-- Generator: Adobe Illustrator 16.0.0, SVG Export Plug-In . SVG Version: 6.00 Build 0)  -->
<!DOCTYPE svg PUBLIC "-//W3C//DTD SVG 1.1//EN" "http://www.w3.org/Graphics/SVG/1.1/DTD/svg11.dtd">
<svg version="1.1" id="Layer_1" xmlns="http://www.w3.org/2000/svg" xmlns:xlink="http://www.w3.org/1999/xlink" x="0px" y="0px"
	 width="493px" height="64px" viewBox="0 0 493 64" enable-background="new 0 0 493 64" xml:space="preserve">
<g fill="#FDF020">
	<g>
		<path fill-rule="evenodd" clip-rule="evenodd" d="M215.77,48.08c0.57-0.71,2.78,0.23,3.35-0.48
			C219.36,48.42,216.62,48.15,215.77,48.08z"/>
		<path fill-rule="evenodd" clip-rule="evenodd" d="M140.88,47.83c1.89-0.73,5.68-0.92,8.37-0.72
			C146.07,48.21,144.43,47.54,140.88,47.83z"/>
		<path fill-rule="evenodd" clip-rule="evenodd" d="M174.61,47.35c-1.2,0.56-3.43,0.08-5.02,0.24c-2.78-0.15,1.13-0.34,2.15-0.24
			c2.73-0.42,6.21-0.16,9.81-0.24c2.72,0.12-0.88,0.36-1.91,0.24h-4.55H174.61z"/>
		<path fill-rule="evenodd" clip-rule="evenodd" d="M211.94,47.35c2-0.86,4.74-0.65,6.7-0.48
			C216.96,47.81,214.38,46.88,211.94,47.35z"/>
		<path fill-rule="evenodd" clip-rule="evenodd" d="M153.56,47.11c0.06-0.3,0.48-0.24,0.48,0c0.23-0.01,0.19-0.29,0.24-0.48
			c0.58-0.1,0.52,0.44,1.2,0.24C155.04,47.19,154.03,47.56,153.56,47.11z"/>
		<path fill-rule="evenodd" clip-rule="evenodd" d="M186.81,47.11c1.45,0.07,4.27-0.99,5.03-0.24
			C191.11,46.15,188.45,47.85,186.81,47.11z"/>
		<path fill-rule="evenodd" clip-rule="evenodd" d="M63.35,38.47c-0.35-0.37-1.22-0.21-1.91-0.24
			C61.97,37.83,63.19,37.52,63.35,38.47z"/>
		<path fill-rule="evenodd" clip-rule="evenodd" d="M49.72,37.99c-0.77,0.05-1.01-0.43-1.91-0.24
			C47.92,37.42,49.96,37.17,49.72,37.99z"/>
		<path fill-rule="evenodd" clip-rule="evenodd" d="M31.53,35.83c1.03-0.7,2.37,0.34,3.83,0C34.81,36.78,32.84,35.65,31.53,35.83z"
			/>
		<path fill-rule="evenodd" clip-rule="evenodd" d="M60.25,32.23c-0.75-0.25-1.19-0.09-2.39-0.24
			C58.1,31.69,60.37,31.38,60.25,32.23z"/>
		<path fill-rule="evenodd" clip-rule="evenodd" d="M57.61,31.99c-0.63-0.49-2.2-0.04-2.87-0.48
			C55.06,31.37,57.43,31.21,57.61,31.99z"/>
		<path fill-rule="evenodd" clip-rule="evenodd" d="M47.8,30.56C46.04,31.04,45.23,29.76,47.8,30.56L47.8,30.56z"/>
		<path fill-rule="evenodd" clip-rule="evenodd" d="M58.57,26.71c-0.61,0.7-1.6-0.23-2.15,0.24C56.5,25.84,57.96,26.83,58.57,26.71z
			"/>
		<path fill-rule="evenodd" clip-rule="evenodd" d="M33.21,25.27c0.91,0.48-1.23-0.15-0.72,0.72c-1.28-0.28-1.19,0.08-2.39,0.24
			v-1.2c0.21,0.15,0.43,0.29,0.48,0C31.06,26.09,31.37,25.23,33.21,25.27z"/>
		<path fill-rule="evenodd" clip-rule="evenodd" d="M70.77,24.31c0.11-1.12,1.98,0.06,2.15-0.48
			C73.76,24.61,71.42,24.23,70.77,24.31z"/>
		<path fill-rule="evenodd" clip-rule="evenodd" d="M12.63,23.83c-1.6,0.63-4.17-0.46-5.98,0C6.97,22.54,10.29,23.97,12.63,23.83z"
			/>
		<path fill-rule="evenodd" clip-rule="evenodd" d="M44.93,23.83c-0.94-0.37-1.85-0.54-2.87-0.24
			C42.48,22.84,44.72,22.96,44.93,23.83z"/>
		<path fill-rule="evenodd" clip-rule="evenodd" d="M52.11,22.39c1.08-0.47,2.48,0.26,4.55,0C55.71,23.02,53.67,22.76,52.11,22.39z"
			/>
		<path fill-rule="evenodd" clip-rule="evenodd" d="M38.95,20.71c0-0.71,1.13-0.31,1.44-0.72c-0.04-0.28-0.44-0.2-0.72-0.24
			c0.97-0.79,1.89,0.6,2.87,0C42.86,20.64,40.4,20.8,38.95,20.71z"/>
		<path fill-rule="evenodd" clip-rule="evenodd" d="M63.59,19.99c0.49-0.55,1.99-0.09,2.87-0.24C66.53,20.11,64.4,20.34,63.59,19.99
			z"/>
		<path fill-rule="evenodd" clip-rule="evenodd" d="M60.48,19.75C62.75,19.02,63.79,20.06,60.48,19.75L60.48,19.75z"/>
		<path fill-rule="evenodd" clip-rule="evenodd" d="M78.67,18.31c-1.34,0.46-3.33,0.24-4.31,0C74.77,17.51,77.48,18.33,78.67,18.31z
			"/>
		<path fill-rule="evenodd" clip-rule="evenodd" d="M99.24,17.59c-0.29-0.11-0.49-0.31-0.48-0.72c0.46-0.45,0.6-0.02,1.2,0
			C99.94,17.33,99.17,17.04,99.24,17.59z"/>
		<path fill-rule="evenodd" clip-rule="evenodd" d="M17.66,17.59c0.44-0.81,1.32-0.07,2.15-0.48C19.9,18.09,18.32,17.38,17.66,17.59
			z"/>
		<path fill-rule="evenodd" clip-rule="evenodd" d="M272.47,16.87c-0.95,0.55-3.04,0.18-4.07,0
			C269.8,16.5,271.19,16.73,272.47,16.87z"/>
		<path fill-rule="evenodd" clip-rule="evenodd" d="M265.53,16.39h1.67C266.84,16.96,265.79,17.44,265.53,16.39z"/>
		<path fill-rule="evenodd" clip-rule="evenodd" d="M251.65,15.67c-0.26,0.54-1.51,0.09-2.15,0.24
			C249.91,15.13,250.85,15.59,251.65,15.67z"/>
		<path fill-rule="evenodd" clip-rule="evenodd" d="M303.09,15.43c0.2-0.99,3.11-0.21,3.83-0.24
			C306.07,16.41,304.31,14.81,303.09,15.43z"/>
		<path fill-rule="evenodd" clip-rule="evenodd" d="M225.34,14.71c0.15-0.21,0.29-0.43,0-0.48c0.32-0.3,2.69-0.63,2.63,0.24
			C226.81,14.92,226.6,14.23,225.34,14.71z"/>
		<path fill-rule="evenodd" clip-rule="evenodd" d="M222.94,14.71c0.01-1.48,1.45-0.2,2.15-0.72
			C224.89,15.28,223.66,14.2,222.94,14.71z"/>
		<path fill-rule="evenodd" clip-rule="evenodd" d="M250.22,13.75C251.95,13.06,252.52,14.56,250.22,13.75L250.22,13.75z"/>
		<path fill-rule="evenodd" clip-rule="evenodd" d="M231.8,13.51c1.23-0.73,2.38-0.13,4.54-0.24
			C235.01,14.49,233.85,13.31,231.8,13.51z"/>
		<path fill-rule="evenodd" clip-rule="evenodd" d="M82.74,13.75c0.51-0.72,2.21,0.64,2.87-0.24
			C86.31,14.37,83.21,13.99,82.74,13.75z"/>
		<path fill-rule="evenodd" clip-rule="evenodd" d="M82.5,13.99h-3.59C79.56,13.69,82.04,12.93,82.5,13.99z"/>
		<path fill-rule="evenodd" clip-rule="evenodd" d="M299.98,13.27c2.63-1.07,5.25,0,8.13,0C306.05,14.47,302.56,12.43,299.98,13.27z
			"/>
		<path fill-rule="evenodd" clip-rule="evenodd" d="M248.54,13.51c-2.15,0.49-5.58-0.02-1.91-0.72
			C246.98,13.33,247.75,13.43,248.54,13.51z"/>
		<path fill-rule="evenodd" clip-rule="evenodd" d="M97.81,12.08c0.33-0.55,1.67-0.09,2.39-0.24C99.69,12.35,98.7,12.39,97.81,12.08
			z"/>
		<path fill-rule="evenodd" clip-rule="evenodd" d="M90.15,11.83c-1.07-0.16,1.63-0.3,2.39-0.24C92.76,11.61,91.93,12.1,90.15,11.83
			z"/>
		<path fill-rule="evenodd" clip-rule="evenodd" d="M211.22,8.95C207.25,9.79,208.5,8.44,211.22,8.95L211.22,8.95z"/>
		<path fill-rule="evenodd" clip-rule="evenodd" d="M204.04,8.47C204.02,9.74,201.39,9.19,204.04,8.47L204.04,8.47z"/>
		<path fill-rule="evenodd" clip-rule="evenodd" d="M194.23,9.19c-0.5-0.14-1.57,0.3-1.68-0.24C192.32,8.16,194.32,8.61,194.23,9.19
			z"/>
		<path fill-rule="evenodd" clip-rule="evenodd" d="M179.16,8.23c-0.35-0.13-1.24,0.28-1.2-0.24C177.69,7.17,179.7,7.28,179.16,8.23
			z"/>
		<path fill-rule="evenodd" clip-rule="evenodd" d="M248.06,49.27c-0.51,0.04-2.41-0.07-2.87,0.72c21.13,1.29,40.84,4.14,62.69,3.36
			c10.1-0.36,20.14,1.09,30.63,0.24c3.02-0.24,6.24-0.48,9.81-0.24c16.59,1.14,34.95,1.91,52.88,1.2c24.97-0.99,49.9-3.09,70.58-8.4
			c13.71-3.06,14.79-16.71,7.42-25.92c-7.92-9.88-20.28-7.54-33.5-4.8c-4.79,2.12-10.55,2.04-15.79,1.44
			c-0.2,0.6-0.48,1.12-0.96,1.44c-5.29,0.87-9.51-2.66-15.31,0.48c0-0.35,1.01-0.76,0-0.72c-0.69,0.79-0.56,0.92-1.91,0.96
			c-0.57-0.49,0.33-0.95-0.24-1.44c-5.84-0.4-10.43,0.84-15.31,2.64c-6.14-0.44-10.86,0.77-16.75,0.24
			c-5.5-0.5-10.04-4.57-16.27-4.32c-4.26,0.17-10.13-0.06-14.6,0.24c-0.16-1.06,0.04-0.98-0.48-1.68
			c-4.65-2.22-8.36,0.54-12.68-0.24c-7.19-1.3-13.99-4.99-19.14-1.2c-2.43,0.24-4.88-0.51-5.98,0.24h-0.72
			c-1.69,0.2,2.57,0.68,3.59,0.48c0.32,0.11,0.61,0.14,1.2,0.48c0.93,0.5,1.04-1.01,1.44-0.24c-0.09,0.34-0.29,0.41,0,0.72
			c-2.8,0.63-6.17-0.43-8.61,0.72c1.46,0.14,3.6-0.41,4.07,0.72c-0.15,0.87-1.21-0.65-0.96,0.48c2.47-0.12,5.34,0.92,8.85,0
			c2.38,1.81,8.32,0.32,10.77,1.68c-8.87,0.13-18.85-0.67-28.71-0.96c-6.06-0.18-16.23-0.36-21.05,0.24
			c0.08,0.57,1.87,0.15,2.63,0.96c-1.23,0.17-2.05-0.17-2.39,0.48c0.42,0.45,0.74-0.33,0.96,0.48c-2.85,0.24-9.49-0.09-13.88-0.48
			c2.8-0.96,7.07,0.96,11.24-0.72c-6.81-0.28-13.66-0.8-20.34-0.72c2.71,1.82,7.14-0.04,8.85,1.44
			c-10.72-0.46-22.17-0.87-30.86-1.92c1.22-0.34,6.69,0.46,8.14-0.24c-0.43-0.12,0.1-0.26,0.24-0.48
			c-4.97,0.63-11.81-1.18-17.46-1.2c-1.2,0-6.07,0.61-3.35-0.48c-14.92-2.32-25.71-0.21-40.2-1.44c1.32,0.03,3.77-1.24,4.07,0
			c0.62-1.37,1.87,0.22,3.11-0.96c-18.52-0.51-31.86,4.18-50.72,3.6c-0.1-0.58,1.09,0.13,0.72-0.72c-1.78,1.05-4.22,1.01-6.7,0.72
			c1.73-1.55,4.01-0.62,7.18-1.2c1.12,0.17,1.12-0.41,0-0.24c-2-0.16-4.62,0.32-6.22-0.24c11.49-0.19,23.47-1.4,33.97-3.6
			c-0.06,0.34-0.39,0.41-0.48,0.72c2.42,0.05,3.17-0.22,1.92-0.96c1.51,0.26,2.38-0.66,3.35-0.24c0.05,0.71-2.06,0.47-1.2,1.2
			c8.24-1.72,14.37-0.66,24.65-1.92c-3.7-0.32-6.35,0.8-8.37-0.48c0.96-0.15,2.54,0.31,3.11-0.24c-3.79-0.6-9.67,0.33-15.31-0.48
			c-0.18-0.74,0.66-0.46,0.48-1.2c-5.06-0.77-7.12,3.16-11.96,2.4c0.89-0.07,1.64-0.27,1.91-0.96c-4.33,0.47-8.18,3.03-13.16,2.64
			c0.27-0.75,0.02-0.54,0-1.44c-7.09-0.22-11.89,1-17.47,0.96c-16.38-0.12-30.86,1.66-47.61,2.16c0.41,0.89-0.05,0.47-0.48,0.96
			c1.52,0.09,3.01-0.22,4.54-0.24c-0.3,0.32-0.72,0.47-0.24,0.96c1.24,0.05,0.76-0.91,1.44-0.96c0.88,1.43,3.15-0.27,4.55,0.48
			c-0.64-0.06-2.14,0.23-1.44,0.72c0.5-0.79,1.55,1.14,2.15,0.24c-0.7-0.27,0.4-0.69,0.48-0.96c1.81,0.79,4.81-0.73,5.74,1.2
			c-1.11,0.08-1.73-0.05-2.15,0.24c10.68,1.61,23.02-1.01,28.95,1.2c-1.77-0.46-3.08,0.04-5.03,0c0.02,0.43,1.02,0.59,0.24,1.44
			c-2.14-1.31-2.51-1.05-5.02-1.68c-0.05,0.43,0.24,1.2-0.48,0.96c-0.86-0.11-1.82-1.36-2.87-0.48c0.57,0.76,1.73-0.57,1.91,0.48
			c-5.91-0.08-12.21,0.95-16.51-0.48c-2.03,1.37-9.33,0.76-11.73,0.48c0.06,0.7,0.33,0.89,0,1.2c-1.45,0.2-2.13-0.21-3.11,0.24
			c0.45-0.01,0.51,0.19,0.24,0.48c-1.93,0.24-3.16-0.3-4.79,0.24c0.34,0.37,1.71-0.31,1.91,0.72c-9.53-0.38-22.71-2.45-33.98-2.4
			c13.03,1.38,24.73,2.07,37.56,3.12c-7.98,0.54-13.61-0.61-19.62-0.72c0.27,0.05,0.37,0.27,0.48,0.48
			c-0.94,0.63-2.43-1.29-0.72-0.72c-1.51-0.51-1.51-0.08-3.35,0c0.41-0.01,0.61,0.18,0.72,0.48c-1.61,0.36-3.28-0.77-4.07,0.24
			c5.05,0.28,12.06,0.78,14.6,1.68c0.04,0.85-2.69,0.17-2.15,0.72c1.22-0.02,2.56-0.17,2.87,0.72c-0.68,0.42-3.3-0.47-4.78,0.24
			c0.62,0.09,1.31,0.12,1.67,0.48c-2.23-0.17-5.9,0.27-1.67,0.24c0.89,0.48,1.51-0.25,2.15,0.48c-5.87,0.14-11.23,0.09-16.99-0.72
			c3.79,1.65,5.91,0.71,10.29,2.16c-2.49,0.37-9.64-0.73-8.37,0.48h-1.44c0-0.32,0.42-0.22,0.48-0.48
			c-2.16,1.88-8.71-1.06-11.01,0.72c0.47-0.12,1.53,0.34,0.96,0.48c-1.53-0.69-0.93-2.03-3.11-0.96c0.01-0.31,0.31-0.33,0.24-0.72
			c-3.16-0.07-5.71-0.06-7.42-0.48c2.09,1.75,4.87,0.21,7.18,1.68c-8.21-0.79-17.23-0.95-24.17-1.68c10,2.51,18.97,2.62,28.95,3.84
			c-0.25-0.55-1.71,0.11-1.91-0.48c1.53,0.16,2.89-0.31,3.35,0.48c-0.35,0.13-1.24-0.28-1.2,0.24c5.93,0.75,17.25,1.1,20.57,2.64
			c-4.2,0.28-8.95-1.26-12.2-0.48c2.65,0.09,4.73,0.09,7.9,0.96c-2.06-0.17-6.44-0.29-8.37-0.72c-0.42,0.6-0.4,0.17-0.96,0.48
			c-2.39-0.62,0.41,0.63,1.91,0.24c3.92,1.91,10.18,1.47,14.6,2.88c-5.02-0.63-10.63-0.27-14.6-1.2
			c-7.77,0.39-14.96-1.69-25.12-2.16c-1.17,0.08,0.23,0.38,0.72,0.24c1.37,0.4,2.14,0.24,3.35,0.48c0.78,0.51,2.49,1.34,3.59,0.72
			c-0.28-0.04-0.68,0.04-0.72-0.24c8.06,2.1,20.41,2.11,29.67,4.32c-0.86,0.86-2.9,0.75-3.83,0c6.08,0.45-1.9-0.46-4.07-0.72
			c-0.19,0.68-1.43,0.33-1.67,0.96c1.64-0.25,2.69-0.97,4.31-0.24c-0.07,0.49-0.89,0.22-0.96,0.72c0.42,0.05,1.2-0.24,0.96,0.48
			c-4.02-0.42-11.24-1.54-15.55-0.96c2.33,0.75,5.11,0.44,6.46,1.68c-7.33,0.35-12.62-1.06-18.42-1.2c0.36,0.04,0.88-0.09,0.96,0.24
			c-0.66,0.16-0.55,0.04-0.96,0.72c-3.37-0.46-7.97-0.97-10.77-1.2c5.72,1.55,15.49,2.38,19.38,3.6c3.54,0.27,9.61,0.35,12.92,2.16
			c-4.98-0.04-10.17-1.16-14.6-0.96c0.26-0.01,0.61,0.11,0.24,0.24c-6.07-1.44-17.37-2.65-24.41-3.12c1.91,0.2,6.64,0.76,5.5,1.68
			c1.38,0.12,1.29-0.13,1.2-0.48c25.09,5.29,55.65,7.06,85.18,6.96c30.94-2.05,59.43-4.85,88.05-3.36
			c12.24,0.64,24.81,0.01,36.61,0.72c2.16,0.13,3.57,0.4,4.79,1.44c-1.73,0.04-5.03-0.97-6.94,0c13.5,1.23,25.64,1.63,36.85,3.6
			C265.65,50.7,253.63,50.73,248.06,49.27z M90.63,20.23c-0.8,0.37-2.85,0.44-2.87-0.24C88.76,19.58,89.37,20,90.63,20.23z
			 M125.32,36.31c0.61-0.78,2.71-0.36,4.55-0.48c3.44,0.17-0.71,0.08-0.96,0.72C127.85,35.93,126.23,36.66,125.32,36.31z
			 M52.83,27.43c0.31,0.33,1.04,0.24,1.67,0.24C54.42,28.46,52.8,28.16,52.83,27.43z M175.33,19.99
			c10.61-1.53,18.44-2.36,30.87-1.92c-0.26,0.54-1.51,0.09-2.15,0.24c7.8,1.79,18.01,0.36,25.6,1.68
			c-6.14,1.27-13.43,1.06-18.66,0.72c1.52-0.86,3.66,0.09,5.03-0.48c-8.46-0.66-15.75-0.26-22.73-0.24c0.88,0.78,5.55,0.72,7.42,0
			c2.81,0.8,6.1-0.04,10.29,0.72c-4.71-0.04-12.97,0.24-18.66,0.24c-0.13-0.53,0.46-0.34,0.48-0.72c-1.07-0.4-5.85,0-5.26,0.48
			c-11.2,0.41-26.66,1.54-37.8,2.88c8.15-1.87,16.19-2.19,27.28-3.36C177.74,19.37,176.18,20.3,175.33,19.99z M235.86,20.47
			c0.39-0.77,0.8-0.61,1.67-0.48c-6.72-2.09-21.38-1.18-30.87-1.68c6.04-1.36,14.37,0.71,20.58-0.48c5.1,1.32,12.03,0.63,17.7,0.96
			c-0.04,0.28-0.44,0.2-0.72,0.24c3.72,0.33,8.78,1.2,13.16,1.68c-3.44,0.26-9.71-0.15-13.4,0c0.03-0.61,0.8-0.47,1.43-0.48
			C242.28,19.65,239.74,20.84,235.86,20.47z M91.83,20.47c2.11-0.74,3.99-0.13,6.22-0.24C96.88,21.17,93.9,20.55,91.83,20.47z
			 M143.51,18.08c0.41-0.55,1.83-0.09,2.63-0.24C145.82,18.89,143.74,18.06,143.51,18.08z M128.2,17.35
			c0.15-0.33,0.92-0.04,0.96-0.48c0.29,1.13,0.84,0.23,1.91,0.24c0.03,0.43-0.29,0.51-0.24,0.96
			C130.4,16.7,128.05,19.54,128.2,17.35z M337.55,17.83c-5.06,0.17-9.73-0.46-15.55-0.72C326.23,15.58,332.8,17.08,337.55,17.83z
			 M132.5,18.08c0.29-0.67,1.72-0.2,2.15-0.72C135.32,18.03,133.38,18.15,132.5,18.08z M152.36,17.59c2.72-1.21,4.72-1.32,8.13-0.72
			c-0.89,0.51-3.12,0.87-3.59-0.24c-0.35,0.11,0.1,0.31,0,0.72C155,16.61,152.96,17.89,152.36,17.59z M232.51,17.11
			C230.02,17.58,229.17,16.34,232.51,17.11L232.51,17.11z M142.07,16.63c-0.03,0.46-0.79,0.17-0.72,0.72
			c-1.08-0.77-0.95,0.07-2.39,0C139.83,16.41,140.67,16.84,142.07,16.63z M136.09,17.35c-0.55,0.08-0.92-0.04-1.2-0.24
			c0.15-0.2,1.12-0.75,1.2-0.24V17.35z M199.5,17.11c-0.9-0.79-1.62-0.71-3.11-0.24c0.03-0.43-0.29-0.51-0.24-0.96
			c3.2,0.31,7.64-0.63,10.05,0.48C204.23,16.78,201.53,16.22,199.5,17.11z M208.83,16.87c-0.58-1.14-1.76-0.21-2.39-0.48
			c1.56-0.72,6.73-0.62,9.81-0.48c1.57,0.07,6.8,0.47,2.63,0.48c-2.72,0.19-5.96,0.1-9.33-0.24
			C209.32,16.41,208.66,16.23,208.83,16.87z M330.13,15.67c-0.18,0.54-1.34,0.09-1.91,0.24C328.65,15.6,329.66,15.23,330.13,15.67z
			 M110.73,15.19c-1.6,0.05-3.01,0.16-4.55,0c1.16-1.29,3.92-0.75,5.26-0.72C111.51,14.89,110.02,14.91,110.73,15.19z M175.09,10.39
			c1.87-0.67,3.49-0.56,5.5-0.72C179.39,10.54,177.05,10.28,175.09,10.39z M181.07,9.91c0.03-0.69,1.64,0.21,1.68-0.48
			C183.3,10.12,181.65,10.09,181.07,9.91z"/>
		<path fill-rule="evenodd" clip-rule="evenodd" d="M25.07,25.27c0.21-0.11,0.43-0.21,0.48-0.48c0.13,0.07,0.24,1.06,0.48,0
			c0.2-0.04,0.23,0.09,0.24,0.24h0.48c-0.99,0.98-2.74,0.64-4.55,1.2c-0.76-0.33,0.94-0.15,0.96-0.48
			c-1.38-0.31-2.08-0.72-2.87-0.24C21.44,23.99,23.89,24.89,25.07,25.27z"/>
		<path fill-rule="evenodd" clip-rule="evenodd" d="M131.07,49.03c6-0.65,11.4-0.76,16.75-0.72
			C142.27,49.38,136.99,48.95,131.07,49.03z"/>
		<path fill-rule="evenodd" clip-rule="evenodd" d="M153.32,49.03C155.45,47.96,155.57,49.13,153.32,49.03L153.32,49.03z"/>
		<path fill-rule="evenodd" clip-rule="evenodd" d="M156.91,48.55c-0.14-0.55,1.66-0.87,1.44,0c0.97-0.86,2.45,0.04,3.11-0.48
			C161.46,49.63,158.17,48.19,156.91,48.55z"/>
		<path fill-rule="evenodd" clip-rule="evenodd" d="M160.02,46.87c-1.08,0.43-2.52,0.51-4.07,0.48c0.27-0.29,0.21-0.49-0.24-0.48
			C156.86,46.83,158.76,46.49,160.02,46.87z"/>
		<path fill-rule="evenodd" clip-rule="evenodd" d="M206.67,47.11c0.92-0.66,3.57-0.38,4.07-0.72
			C211.09,47.54,208.43,46.94,206.67,47.11z"/>
		<path fill-rule="evenodd" clip-rule="evenodd" d="M57.61,38.23c-0.44-0.19,0.14-0.26,0.48-0.24c-0.04-0.28-0.44-0.2-0.72-0.24
			c0.73-0.68,2.01,0.13,2.15-0.72C60.04,37.64,58.15,37.88,57.61,38.23z"/>
		<path fill-rule="evenodd" clip-rule="evenodd" d="M46.85,37.27c-4.01,0.58-7.16-0.61-11.25-0.96
			C38.55,35.88,42.55,37.15,46.85,37.27z"/>
		<path fill-rule="evenodd" clip-rule="evenodd" d="M51.39,30.79c-1.03,0.7-1.86,0.15-3.11,0C48.83,30.34,50.22,31.08,51.39,30.79z"
			/>
		<path fill-rule="evenodd" clip-rule="evenodd" d="M38.71,26.23c0.52-0.2,0.82-0.62,1.67-0.48c-0.44,0.46-0.44,0.19-0.24,0.96
			c-2.18-0.16-4.47-0.68-6.22-0.96C34.93,25.27,38.05,25.65,38.71,26.23z"/>
		<path fill-rule="evenodd" clip-rule="evenodd" d="M49.48,25.51c-0.21,1.11-2.56,0.43-3.35,0C46.47,25.35,48.4,25.63,49.48,25.51z"
			/>
		<path fill-rule="evenodd" clip-rule="evenodd" d="M59.53,25.03c-3.24,0.04-9.7-0.82-14.12-1.2C50.4,23.52,54.9,24.34,59.53,25.03z
			"/>
		<path fill-rule="evenodd" clip-rule="evenodd" d="M258.11,18.31c-3.93,0.21-7.28-0.6-11.25-0.48c0.9-1.04,3.11-0.49,3.83-0.72
			c-0.47,0.27-0.47-0.05,0,0.72C253.17,17.02,256.28,16.8,258.11,18.31z"/>
		<path fill-rule="evenodd" clip-rule="evenodd" d="M92.55,17.59c0.62,0.06-0.33,0.41,0,0.96c-0.95-0.13-0.72-0.13-1.68,0
			c-0.09-0.41,0.19-0.45,0.48-0.48c0.05-0.21-0.09-0.23-0.24-0.24C91,17.29,92.41,18.39,92.55,17.59z"/>
		<path fill-rule="evenodd" clip-rule="evenodd" d="M86.08,17.59c0.03-0.4,1,0.25,1.67,0c-0.36,0.28-0.58,0.69-1.2,0.72
			c0.07-0.98-0.33,0.04-0.96-0.24C84.56,17.74,87.13,17.93,86.08,17.59z"/>
		<path fill-rule="evenodd" clip-rule="evenodd" d="M72.45,16.87c-0.48,0.32-1.59-0.4-2.39,0C70.32,15.93,72.03,16.51,72.45,16.87z"
			/>
		<path fill-rule="evenodd" clip-rule="evenodd" d="M303.81,16.39c-0.9,0.25-1.44,0.27-1.92,0.24
			C298.86,16.43,302.28,15.88,303.81,16.39z"/>
		<path fill-rule="evenodd" clip-rule="evenodd" d="M91.35,15.67c-0.42,0.71-1.27-0.14-1.91,0c-0.25-0.81,0.74-0.37,1.2-0.48
			c-0.01,0.23-0.29,0.19-0.48,0.24C90.11,15.96,91,15.54,91.35,15.67z"/>
		<path fill-rule="evenodd" clip-rule="evenodd" d="M244.24,15.43c0.63-0.37,1.34,0.09,2.15-0.24
			C246.18,15.78,244.72,15.84,244.24,15.43z"/>
		<path fill-rule="evenodd" clip-rule="evenodd" d="M228.68,14.47c3.27-0.65,8.76,0.63,12.92,0.48
			C237.5,15.52,232.5,14.64,228.68,14.47z"/>
		<path fill-rule="evenodd" clip-rule="evenodd" d="M214.33,12.79c2.07,0.56,5.42-1.3,6.94,0.48c-3,0.62-5.91-0.16-9.57,0
			c0.29-0.67,1.47-0.45,2.39-0.48c-0.16-0.24-0.55-0.25-0.48-0.72c0.6,0.16,1.07,0.23,1.91,0
			C216.18,12.44,214.37,12.33,214.33,12.79z"/>
		<path fill-rule="evenodd" clip-rule="evenodd" d="M227.49,12.56c0.15-1.14,1.57-0.99,2.87-0.96c-0.55,0.86-1.82,0.06-2.39,0.48
			c0.79,0.84,4.36-0.81,3.83,0.24C230.12,12.15,229.17,12.72,227.49,12.56z"/>
		<path fill-rule="evenodd" clip-rule="evenodd" d="M240.41,10.63c-0.97,1.09-2.44-0.5-4.31,0c-0.27,1.25-3.09-0.46-5.02-0.24
			c-0.37,0.13-0.02,0.25,0.24,0.24c-4.26,0.74-8.84,0.9-13.16,0.48c-0.38-0.4,1.88-0.18,2.39-0.48c-5.68-1.33-8.83,0.28-14.35-0.72
			c-0.43,0.13-1,0.12-1.2,0.48c-0.32-0.4-1.35-0.08-1.67-0.48c-4.53-0.57,3.2,0,3.59,0C218.62,10.02,228.98,9.52,240.41,10.63z"/>
		<path fill-rule="evenodd" clip-rule="evenodd" d="M201.65,8.95c-0.12,0.28-1.85-0.26-1.43,1.2c-0.28-0.2-0.64-0.32-1.2-0.24
			c-0.77-0.28,0.64-0.27,0.96-0.24c-0.06-0.9-1.98,0.07-1.91-0.96c1.27-0.19,2.46,0.51,3.11-0.72C201.82,7.82,201,9.13,201.65,8.95z
			"/>
		<path fill-rule="evenodd" clip-rule="evenodd" d="M230.12,13.99c-2.14-1.1-5.4-0.56-8.61-0.72c2.95-2.64,6.19,0.18,9.33-0.24
			C230.6,13.35,230.19,13.51,230.12,13.99z"/>
		<path fill-rule="evenodd" clip-rule="evenodd" d="M191.36,13.03c4.29-1.76,13.47-0.63,20.58-0.96
			C205.6,13.49,197.92,12.78,191.36,13.03z"/>
	</g>
</g>
</svg>
